{
	"asset":{
		"generator":"Khronos glTF Blender I/O v4.1.63",
		"version":"2.0"
	},
	"extensionsUsed":[
		"KHR_materials_specular"
	],
	"scene":0,
	"scenes":[
		{
			"name":"Scene",
			"nodes":[
				0
			]
		}
	],
	"nodes":[
		{
			"mesh":0,
			"name":"Plane.005",
			"rotation":[
				0.7071068286895752,
				0,
				0,
				0.7071068286895752
			],
			"scale":[
				0.009999999776482582,
				0.009999999776482582,
				0.009999999776482582
			]
		}
	],
	"materials":[
		{
			"doubleSided":true,
			"extensions":{
				"KHR_materials_specular":{
					"specularColorFactor":[
						2.0,
						2.0,
						2.0
					]
				}
			},
			"name":"Material.002",
			"pbrMetallicRoughness":{
				"baseColorFactor":[
					0.860203742980957,
					0.6864399313926697,
					0.5581705570220947,
					1
				],
				"metallicFactor":0,
				"roughnessFactor":0.20000000298023224
			}
		},
		{
			"doubleSided":true,
			"extensions":{
				"KHR_materials_specular":{
					"specularColorFactor":[
						2.0,
						2.0,
						2.0
					]
				}
			},
			"name":"Material.001",
			"pbrMetallicRoughness":{
				"baseColorFactor":[
					0,
					0,
					0,
					1
				],
				"metallicFactor":0,
				"roughnessFactor":0
			}
		},
		{
			"doubleSided":true,
			"extensions":{
				"KHR_materials_specular":{
					"specularColorFactor":[
						2.0,
						2.0,
						2.0
					]
				}
			},
			"name":"lambert4",
			"pbrMetallicRoughness":{
				"baseColorTexture":{
					"index":0
				},
				"roughnessFactor":0.5527864098548889
			}
		}
	],
	"meshes":[
		{
			"name":"Mesh.002",
			"primitives":[
				{
					"attributes":{
						"POSITION":0,
						"NORMAL":1,
						"TEXCOORD_0":2,
						"TEXCOORD_1":3
					},
					"indices":4,
					"material":0
				},
				{
					"attributes":{
						"POSITION":5,
						"NORMAL":6,
						"TEXCOORD_0":7,
						"TEXCOORD_1":8
					},
					"indices":9,
					"material":1
				},
				{
					"attributes":{
						"POSITION":10,
						"NORMAL":11,
						"TEXCOORD_0":12,
						"TEXCOORD_1":13
					},
					"indices":14,
					"material":2
				}
			]
		}
	],
	"textures":[
		{
			"sampler":0,
			"source":0
		}
	],
	"images":[
		{
			"mimeType":"image/png",
			"name":"SDADSASD_lambert3_BaseColor",
			"uri":"SDADSASD_lambert3_BaseColor.png"
		}
	],
	"accessors":[
		{
			"bufferView":0,
			"componentType":5126,
			"count":12824,
			"max":[
				3.797186851501465,
				12.369339942932129,
				-28.590042114257812
			],
			"min":[
				-3.797187089920044,
				5.637521266937256,
				-31.175756454467773
			],
			"type":"VEC3"
		},
		{
			"bufferView":1,
			"componentType":5126,
			"count":12824,
			"type":"VEC3"
		},
		{
			"bufferView":2,
			"componentType":5126,
			"count":12824,
			"type":"VEC2"
		},
		{
			"bufferView":3,
			"componentType":5126,
			"count":12824,
			"type":"VEC2"
		},
		{
			"bufferView":4,
			"componentType":5123,
			"count":76932,
			"type":"SCALAR"
		},
		{
			"bufferView":5,
			"componentType":5126,
			"count":4122,
			"max":[
				3.3167521953582764,
				12.406624794006348,
				-28.703529357910156
			],
			"min":[
				-3.3199894428253174,
				12.179933547973633,
				-31.03656005859375
			],
			"type":"VEC3"
		},
		{
			"bufferView":6,
			"componentType":5126,
			"count":4122,
			"type":"VEC3"
		},
		{
			"bufferView":7,
			"componentType":5126,
			"count":4122,
			"type":"VEC2"
		},
		{
			"bufferView":8,
			"componentType":5126,
			"count":4122,
			"type":"VEC2"
		},
		{
			"bufferView":9,
			"componentType":5123,
			"count":23616,
			"type":"SCALAR"
		},
		{
			"bufferView":10,
			"componentType":5126,
			"count":25653,
			"max":[
				4.825575828552246,
				14.950733184814453,
				-20.929004669189453
			],
			"min":[
				-4.816710472106934,
				2.9665417671203613,
				-38.77451705932617
			],
			"type":"VEC3"
		},
		{
			"bufferView":11,
			"componentType":5126,
			"count":25653,
			"type":"VEC3"
		},
		{
			"bufferView":12,
			"componentType":5126,
			"count":25653,
			"type":"VEC2"
		},
		{
			"bufferView":13,
			"componentType":5126,
			"count":25653,
			"type":"VEC2"
		},
		{
			"bufferView":14,
			"componentType":5123,
			"count":134826,
			"type":"SCALAR"
		}
	],
	"bufferViews":[
		{
			"buffer":0,
			"byteLength":153888,
			"byteOffset":0,
			"target":34962
		},
		{
			"buffer":0,
			"byteLength":153888,
			"byteOffset":153888,
			"target":34962
		},
		{
			"buffer":0,
			"byteLength":102592,
			"byteOffset":307776,
			"target":34962
		},
		{
			"buffer":0,
			"byteLength":102592,
			"byteOffset":410368,
			"target":34962
		},
		{
			"buffer":0,
			"byteLength":153864,
			"byteOffset":512960,
			"target":34963
		},
		{
			"buffer":0,
			"byteLength":49464,
			"byteOffset":666824,
			"target":34962
		},
		{
			"buffer":0,
			"byteLength":49464,
			"byteOffset":716288,
			"target":34962
		},
		{
			"buffer":0,
			"byteLength":32976,
			"byteOffset":765752,
			"target":34962
		},
		{
			"buffer":0,
			"byteLength":32976,
			"byteOffset":798728,
			"target":34962
		},
		{
			"buffer":0,
			"byteLength":47232,
			"byteOffset":831704,
			"target":34963
		},
		{
			"buffer":0,
			"byteLength":307836,
			"byteOffset":878936,
			"target":34962
		},
		{
			"buffer":0,
			"byteLength":307836,
			"byteOffset":1186772,
			"target":34962
		},
		{
			"buffer":0,
			"byteLength":205224,
			"byteOffset":1494608,
			"target":34962
		},
		{
			"buffer":0,
			"byteLength":205224,
			"byteOffset":1699832,
			"target":34962
		},
		{
			"buffer":0,
			"byteLength":269652,
			"byteOffset":1905056,
			"target":34963
		}
	],
	"samplers":[
		{
			"magFilter":9729,
			"minFilter":9987
		}
	],
	"buffers":[
		{
			"byteLength":2174708,
			"uri":"lama.bin"
		}
	]
}
