# This file uses centimeters as units for non-parametric coordinates.

mtllib flutter.mtl
g default
v -0.353032 -0.209293 -0.025377
v -0.371080 -0.191339 -0.000000
v -0.389033 -0.209387 -0.025377
v 0.555978 0.740817 -0.022844
v 0.529067 0.712401 -0.000000
v 0.568175 0.710902 -0.022844
v -0.581362 -0.019266 -0.025540
v -0.563406 -0.001220 0.000000
v -0.581453 0.016735 -0.025540
v 0.133775 0.730946 -0.026167
v 0.157936 0.720692 0.000000
v 0.168044 0.744915 -0.026167
v -0.371080 -0.191339 -0.261701
v -0.352975 -0.209237 -0.236244
v -0.389090 -0.209331 -0.236244
v 0.553593 0.740842 -0.237551
v 0.568175 0.710902 -0.238857
v 0.529067 0.712401 -0.261701
v 0.133968 0.731138 -0.235889
v 0.168044 0.744915 -0.235534
v 0.157936 0.720692 -0.261701
v -0.581421 -0.019208 -0.236244
v -0.581453 0.016735 -0.236161
v -0.563406 -0.001220 -0.261701
v -0.020241 -0.588848 -0.025440
v -0.002183 -0.570906 -0.000000
v -0.028108 -0.545949 -0.000000
v -0.046151 -0.563886 -0.025440
v 0.219562 -0.325062 -0.024486
v 0.196728 -0.313096 -0.000000
v 0.174459 -0.342624 -0.000000
v 0.196767 -0.373339 -0.000000
v 0.219424 -0.359730 -0.024480
v -0.243784 -0.368521 -0.025467
v -0.225881 -0.350447 0.000000
v -0.243955 -0.332544 -0.025467
v 0.555927 0.051553 -0.022816
v 0.528886 0.023144 -0.000000
v 0.568079 0.021662 -0.022816
v 0.133630 0.041922 -0.026157
v 0.157731 0.031456 0.000000
v 0.167979 0.055651 -0.026157
v -0.044730 -0.131839 -0.025440
v -0.026312 -0.149396 0.000000
v -0.000716 -0.124090 0.000000
v -0.019155 -0.106534 -0.025440
v 0.165959 -0.744919 -0.026167
v 0.155629 -0.720668 -0.000000
v 0.131530 -0.731350 -0.026167
v 0.569987 -0.713919 -0.022818
v 0.530796 -0.715109 -0.000000
v 0.557607 -0.743719 -0.022818
v -0.020241 -0.588848 -0.236261
v -0.046151 -0.563886 -0.236261
v -0.028108 -0.545949 -0.261701
v -0.002183 -0.570906 -0.261701
v 0.196996 -0.372032 -0.261701
v 0.174456 -0.342624 -0.261701
v 0.196487 -0.311809 -0.261701
v 0.219895 -0.324731 -0.236746
v 0.219756 -0.360065 -0.236749
v -0.000716 -0.124090 -0.261701
v -0.026312 -0.149396 -0.261701
v -0.044730 -0.131839 -0.236261
v -0.019155 -0.106534 -0.236261
v -0.243803 -0.368503 -0.236261
v -0.243955 -0.332544 -0.236234
v -0.225881 -0.350447 -0.261701
v 0.553526 0.051579 -0.237573
v 0.568079 0.021662 -0.238885
v 0.528886 0.023144 -0.261701
v 0.133826 0.042113 -0.235903
v 0.167979 0.055651 -0.235544
v 0.157731 0.031456 -0.261701
v 0.165683 -0.744920 -0.235897
v 0.131530 -0.731350 -0.235534
v 0.155629 -0.720668 -0.261701
v 0.568299 -0.712213 -0.237572
v 0.557607 -0.743719 -0.238883
v 0.530796 -0.715109 -0.261701
vt 0.530386 0.000000
vt 0.533048 0.037911
vt 0.985425 0.000000
vt 1.000000 0.044373
vt 0.533048 0.440577
vt 0.988095 0.442241
vt 1.000000 0.457131
vt 0.521518 0.037904
vt 0.521518 0.440578
vt 0.533048 0.037911
vt 0.985425 0.000000
vt 0.985956 0.042755
vt 1.000000 0.457131
vt 0.988095 0.442242
vt 0.533048 0.440577
vt 0.533086 0.478482
vt 0.985957 0.042756
vt 0.530414 0.000000
vt 1.000000 0.046911
vt 0.990909 0.478482
vt 0.991032 0.478482
vt 0.533086 0.478482
vt 0.521518 0.440455
vt 0.521518 0.037785
vt 0.429228 0.000000
vt 0.435259 0.033489
vt 0.106522 0.037799
vt 0.111231 0.004793
vt 0.518421 0.517701
vt 0.562199 0.483142
vt 0.610673 0.547839
vt 0.586129 0.573681
vt 0.476484 0.074685
vt 0.507618 0.072599
vt 0.521357 0.481078
vt 0.487242 0.486540
vt 0.347980 0.164640
vt 0.327283 0.151917
vt 0.402873 0.573974
vt 0.391754 0.605309
vt 0.081918 0.583205
vt 0.084325 0.551364
vt 0.454506 0.540923
vt 0.387565 0.570971
vt 0.396291 0.537627
vt 0.391046 0.323904
vt 0.406152 0.317011
vt 0.558299 0.928318
vt 0.518438 0.903164
vt 0.650805 0.735337
vt 0.670881 0.745295
vt 0.329375 0.169450
vt 0.200376 0.135335
vt 0.201627 0.110691
vt 0.373803 0.298610
vt 0.383175 0.549808
vt 0.282176 0.522146
vt 0.282238 0.509732
vt 0.351070 0.341008
vt 0.372668 0.335723
vt 0.341304 0.327470
vt 0.217389 0.369998
vt 0.207387 0.363317
vt 0.368348 0.302329
vt 0.168685 0.298348
vt 0.166686 0.289346
vt 0.613532 0.564716
vt 0.793069 0.575666
vt 0.790012 0.591365
vt 0.667496 0.736346
vt 0.772572 0.743768
vt 0.765913 0.771471
vt 0.858928 0.478482
vt 0.897298 0.519188
vt 0.818675 0.595570
vt 0.061866 0.075076
vt 0.182810 0.129649
vt 0.030339 0.074792
vt 0.028822 0.467368
vt 0.000000 0.473277
vt 0.873965 0.889991
vt 0.832378 0.910401
vt 0.783728 0.754003
vt 0.057458 0.510489
vt 0.134088 0.304756
vt 0.145930 0.317654
vt 0.261866 0.507505
vt 0.199448 0.384378
vt 0.480700 0.030297
vt 0.483852 0.547653
vt 0.516996 0.526246
vt 0.389245 0.309499
vt 0.057672 0.034096
vt 0.033742 0.529962
vn 0.002611 -0.999997 -0.000268
vn 0.002611 -0.999997 -0.000268
vn 0.002611 -0.999997 -0.000268
vn 0.002611 -0.999997 -0.000268
vn 0.470020 -0.470392 0.746868
vn 0.470021 -0.470392 0.746868
vn 0.470020 -0.470392 0.746868
vn 0.470020 -0.470392 0.746868
vn -0.497271 -0.502741 0.707087
vn -0.497271 -0.502741 0.707087
vn -0.497271 -0.502742 0.707087
vn -0.497271 -0.502742 0.707087
vn 0.912757 0.408472 -0.005030
vn 0.912757 0.408472 -0.005030
vn 0.912757 0.408472 -0.005030
vn 0.912757 0.408472 -0.005030
vn 0.007856 0.678455 0.734600
vn 0.007856 0.678455 0.734600
vn 0.000255 0.681325 0.731981
vn -0.377752 0.575224 0.725548
vn -0.999999 -0.001714 0.000140
vn -0.999999 -0.001714 0.000140
vn -0.999999 -0.001714 0.000140
vn -0.999999 -0.001714 0.000140
vn -0.509136 0.509598 0.693607
vn -0.509136 0.509598 0.693607
vn -0.507544 0.512118 0.692917
vn -0.696881 0.717187 0.000009
vn -0.022716 0.999742 0.000022
vn -0.022969 0.999736 0.000022
vn -0.696907 0.717162 0.000009
vn -0.497106 -0.502878 -0.707107
vn -0.497106 -0.502877 -0.707107
vn -0.497106 -0.502878 -0.707107
vn -0.497106 -0.502878 -0.707107
vn 0.470444 -0.470847 -0.746315
vn 0.470444 -0.470847 -0.746315
vn 0.470444 -0.470847 -0.746315
vn 0.470444 -0.470847 -0.746315
vn 0.009299 0.687586 -0.726044
vn 0.009299 0.687586 -0.726044
vn -0.375417 0.576959 -0.725383
vn 0.002053 0.690123 -0.723689
vn -0.505868 0.510371 -0.695427
vn -0.507521 0.507812 -0.696096
vn -0.507521 0.507812 -0.696096
vn 0.000000 0.000000 -1.000000
vn 0.000000 0.000000 -1.000000
vn 0.000000 0.000000 -1.000000
vn 0.000000 0.000000 -1.000000
vn 0.000000 -0.000000 1.000000
vn 0.000000 -0.000000 1.000000
vn 0.000000 -0.000000 1.000000
vn 0.000000 -0.000000 1.000000
vn 0.706718 -0.707495 0.000000
vn 0.706718 -0.707495 0.000000
vn 0.706718 -0.707495 0.000000
vn 0.706718 -0.707495 0.000000
vn 0.010562 0.999944 0.000000
vn 0.010562 0.999944 0.000000
vn -0.706603 0.707610 0.000000
vn -0.706603 0.707610 0.000000
vn -0.703014 -0.711176 -0.000000
vn -0.703014 -0.711176 -0.000000
vn -0.703014 -0.711176 -0.000000
vn -0.703014 -0.711176 -0.000000
vn 0.002130 -0.815633 0.578566
vn 0.002130 -0.815633 0.578566
vn 0.002130 -0.815633 0.578566
vn 0.499625 0.203706 0.841949
vn 0.499625 0.203706 0.841949
vn 0.499625 0.203706 0.841949
vn -0.817375 -0.002068 0.576103
vn -0.817375 -0.002068 0.576103
vn -0.817375 -0.002068 0.576103
vn 0.002134 -0.817345 -0.576145
vn 0.002134 -0.817345 -0.576145
vn 0.002134 -0.817345 -0.576145
vn 0.492672 0.275960 -0.825300
vn 0.492672 0.275960 -0.825300
vn 0.492672 0.275960 -0.825300
vn -0.816492 0.000601 -0.577357
vn -0.816492 0.000601 -0.577357
vn -0.816492 0.000601 -0.577357
vn -0.685883 -0.727712 0.000000
vn -0.701963 -0.712213 0.000000
vn -0.701964 -0.712213 0.000000
vn -0.685883 -0.727712 0.000000
vn -0.493025 -0.522265 0.695820
vn -0.493008 -0.522177 0.695898
vn -0.486162 -0.535362 0.690676
vn -0.181273 -0.647272 0.740391
vn 0.000000 -0.000000 1.000000
vn 0.000000 -0.000000 1.000000
vn 0.000000 -0.000000 1.000000
vn 0.000000 -0.000000 1.000000
vn -0.496492 -0.503703 0.706951
vn -0.496473 -0.503720 0.706951
vn -0.497257 -0.502985 0.706924
vn -0.497257 -0.502985 0.706924
vn 0.999991 -0.003949 0.001566
vn 0.999991 -0.003949 0.001566
vn 0.999991 -0.003949 0.001566
vn 0.999991 -0.003949 0.001566
vn 0.486574 -0.412949 0.769882
vn 0.484451 -0.420144 0.767324
vn 0.468933 -0.469191 0.748305
vn 0.468933 -0.469191 0.748305
vn 0.000000 -0.000000 1.000000
vn 0.000000 -0.000000 1.000000
vn 0.000000 -0.000000 1.000000
vn 0.482756 0.411292 0.773166
vn 0.483264 0.409606 0.773743
vn 0.466828 0.461005 0.754683
vn 0.466828 0.461005 0.754683
vn -0.999990 -0.004478 0.000044
vn -0.999990 -0.004478 0.000044
vn -0.999990 -0.004478 0.000044
vn -0.999990 -0.004478 0.000044
vn -0.502001 0.498252 0.706923
vn -0.502001 0.498252 0.706923
vn -0.501452 0.498769 0.706948
vn -0.501474 0.498749 0.706947
vn 0.913058 0.407798 -0.005065
vn 0.913058 0.407798 -0.005065
vn 0.913058 0.407798 -0.005065
vn 0.913058 0.407798 -0.005065
vn 0.007857 0.678386 0.734663
vn 0.007857 0.678386 0.734663
vn 0.000394 0.681260 0.732042
vn -0.185311 0.644285 0.741996
vn -0.655201 0.755454 0.000037
vn -0.022150 0.999755 0.000021
vn -0.022400 0.999749 0.000022
vn -0.655273 0.755392 0.000037
vn -0.494950 0.526905 0.690939
vn -0.501466 0.513867 0.696041
vn -0.501501 0.513959 0.695947
vn -0.709001 0.705208 0.000000
vn -0.697815 0.716278 0.000000
vn -0.697814 0.716279 0.000000
vn -0.709001 0.705208 0.000000
vn -0.028347 -0.999598 0.000021
vn -0.642838 -0.766002 0.000037
vn -0.642608 -0.766196 0.000037
vn -0.028275 -0.999600 0.000021
vn -0.004401 -0.681443 0.731858
vn 0.002774 -0.678654 0.734453
vn 0.002774 -0.678654 0.734453
vn 0.935938 -0.352128 -0.005060
vn 0.935938 -0.352128 -0.005060
vn 0.935938 -0.352128 -0.005060
vn 0.935938 -0.352128 -0.005060
vn -0.493008 -0.522178 -0.695898
vn -0.493025 -0.522265 -0.695820
vn -0.181072 -0.645248 -0.742205
vn -0.486494 -0.534896 -0.690804
vn -0.496338 -0.503626 -0.707114
vn -0.496356 -0.503608 -0.707113
vn -0.497105 -0.502878 -0.707107
vn -0.497105 -0.502878 -0.707107
vn -0.000000 0.000000 -1.000000
vn 0.000000 0.000000 -1.000000
vn -0.000000 0.000000 -1.000000
vn -0.000000 0.000000 -1.000000
vn 0.499136 0.418605 -0.758705
vn 0.497270 0.425326 -0.756188
vn 0.482565 0.474495 -0.736196
vn 0.482565 0.474495 -0.736196
vn -0.000000 0.000000 -1.000000
vn -0.000000 0.000000 -1.000000
vn -0.000000 0.000000 -1.000000
vn 0.482485 -0.417495 -0.770004
vn 0.484054 -0.412485 -0.771718
vn 0.465742 -0.467579 -0.751302
vn 0.465742 -0.467579 -0.751302
vn -0.500356 0.512083 -0.698151
vn -0.500330 0.512005 -0.698227
vn -0.493340 0.524918 -0.693597
vn -0.182822 0.649847 -0.737750
vn -0.501474 0.498749 -0.706947
vn -0.501452 0.498769 -0.706948
vn -0.502001 0.498252 -0.706923
vn -0.502001 0.498252 -0.706923
vn 0.009306 0.687560 -0.726068
vn 0.009306 0.687560 -0.726068
vn 0.002198 0.690097 -0.723714
vn -0.004278 -0.678559 -0.734534
vn 0.003086 -0.675800 -0.737078
vn 0.003086 -0.675800 -0.737078
vn 0.000000 0.000000 -1.000000
vn 0.000000 0.000000 -1.000000
vn 0.000000 0.000000 -1.000000
vn -0.000000 0.000000 -1.000000
vn -0.000000 0.000000 -1.000000
vn 0.000000 -0.000000 1.000000
vn 0.000000 -0.000000 1.000000
vn 0.000000 -0.000000 1.000000
vn 0.000000 0.000000 1.000000
vn 0.000000 0.000000 1.000000
vn -0.709719 0.704485 0.000000
vn -0.709719 0.704485 0.000000
vn -0.703012 -0.711178 0.000000
vn -0.703012 -0.711178 0.000000
vn 0.705280 -0.708929 0.000000
vn 0.705280 -0.708929 0.000000
vn 0.705280 -0.708929 0.000000
vn 0.705280 -0.708929 0.000000
vn 0.010561 0.999944 -0.000000
vn 0.010561 0.999944 -0.000000
vn 0.003066 -0.999995 0.000000
vn 0.003066 -0.999995 0.000000
vn 0.710736 0.703459 0.000000
vn 0.710736 0.703459 0.000000
vn 0.710736 0.703459 0.000000
vn 0.710736 0.703459 0.000000
vn 0.552954 -0.000546 0.833212
vn -0.816769 -0.003871 0.576952
vn -0.816769 -0.003871 0.576952
vn -0.816769 -0.003871 0.576952
vn 0.498385 0.202609 0.842948
vn 0.498385 0.202609 0.842949
vn 0.498385 0.202609 0.842949
vn 0.496991 -0.206467 0.842835
vn 0.496991 -0.206467 0.842835
vn 0.496991 -0.206467 0.842835
vn 0.557787 0.002177 -0.829982
vn -0.816491 -0.003020 -0.577351
vn -0.816491 -0.003020 -0.577351
vn -0.816491 -0.003020 -0.577351
vn 0.491424 0.275289 -0.826268
vn 0.491424 0.275289 -0.826268
vn 0.491424 0.275289 -0.826268
vn 0.543120 -0.149937 -0.826160
vn 0.543120 -0.149937 -0.826160
vn 0.543120 -0.149937 -0.826160
s off
g pPlane3
usemtl initialShadingGroup
f 1/1/1 3/24/2 15/8/3 14/18/4
f 2/2/5 1/1/6 6/3/7 5/17/8
f 3/24/9 2/2/10 8/5/11 7/23/12
f 4/4/13 6/3/14 17/11/15 16/19/16
s 1
f 5/17/17 4/4/18 12/7/19 11/6/20
s off
f 7/23/21 9/22/22 23/16/23 22/9/24
s 1
f 9/22/25 8/5/26 11/6/20 10/20/27
s 2
f 10/20/28 12/7/29 20/13/30 19/21/31
s off
f 13/10/32 15/8/33 22/9/34 24/15/35
f 14/18/36 13/10/37 18/12/38 17/11/39
s 3
f 16/19/40 18/12/41 21/14/42 20/13/43
f 19/21/44 21/14/42 24/15/45 23/16/46
s off
f 13/10/47 24/15/48 21/14/49 18/12/50
f 2/2/51 5/17/52 11/6/53 8/5/54
f 1/1/55 14/18/56 17/11/57 6/3/58
s 2
f 4/4/59 16/19/60 20/13/30 12/7/29
f 10/20/28 19/21/31 23/16/61 9/22/62
s off
f 7/23/63 22/9/64 15/8/65 3/24/66
f 1/1/67 2/2/68 3/24/69
f 4/4/70 5/17/71 6/3/72
f 7/23/73 8/5/74 9/22/75
s 1
f 10/20/27 11/6/20 12/7/19
s off
f 13/10/76 14/18/77 15/8/78
f 16/19/79 17/11/80 18/12/81
s 3
f 19/21/44 20/13/43 21/14/42
s off
f 22/9/82 23/16/83 24/15/84
s 4
f 25/25/85 28/26/86 54/27/87 53/28/88
s 5
f 26/29/89 25/30/90 49/31/91 48/32/92
s 6
f 27/33/93 26/34/94 32/35/95 31/36/96
s 5
f 28/26/97 27/33/98 35/37/99 34/38/100
s off
f 29/39/101 33/40/102 61/41/103 60/42/104
s 7
f 30/43/105 29/39/106 39/44/107 38/45/108
s 6
f 31/36/96 30/43/109 45/46/110 44/47/111
s 7
f 33/48/112 32/49/113 51/50/114 50/51/115
s off
f 34/38/116 36/52/117 67/53/118 66/54/119
s 9
f 36/52/120 35/37/121 44/47/122 43/55/123
s off
f 37/56/124 39/44/125 70/57/126 69/58/127
s 9
f 38/45/128 37/56/129 42/59/130 41/60/131
s 11
f 40/61/132 42/59/133 73/62/134 72/63/135
s 9
f 41/60/131 40/61/136 46/64/137 45/46/138
s 11
f 43/55/139 46/64/140 65/65/141 64/66/142
s 4
f 47/67/143 49/31/144 76/68/145 75/69/146
s 5
f 48/32/92 47/67/147 52/70/148 51/50/149
s off
f 50/51/150 52/70/151 79/71/152 78/72/153
s 12
f 53/73/154 56/74/155 77/75/156 76/68/157
f 55/76/158 54/27/159 66/54/160 68/77/161
s 13
f 56/78/162 55/76/163 58/79/164 57/80/165
s 14
f 57/81/166 61/82/167 78/72/168 80/83/169
s 13
f 59/84/170 58/79/164 63/85/171 62/86/172
s 14
f 60/42/173 59/84/174 71/87/175 70/57/176
s 15
f 62/86/177 65/65/178 72/63/179 74/88/180
f 64/66/181 63/85/182 68/77/183 67/53/184
f 69/58/185 71/87/186 74/88/180 73/62/187
s 12
f 75/69/188 77/75/156 80/83/189 79/71/190
s 13
f 55/76/163 68/77/191 63/85/171 58/79/164
f 62/86/172 74/88/192 71/87/193 59/84/170
f 57/81/165 80/83/194 77/75/195 56/74/162
s 6
f 27/33/93 31/36/96 44/47/111 35/37/196
f 45/46/110 30/43/109 38/45/197 41/60/198
f 32/49/95 26/29/94 48/32/199 51/50/200
s 11
f 43/55/139 64/66/142 67/53/201 36/52/202
s 4
f 34/38/203 66/54/204 54/27/87 28/26/86
s off
f 29/39/205 60/42/206 70/57/207 39/44/208
s 11
f 37/56/209 69/58/210 73/62/134 42/59/133
f 40/61/132 72/63/135 65/65/141 46/64/140
s 4
f 25/30/85 53/73/88 76/68/145 49/31/144
f 47/67/143 75/69/146 79/71/211 52/70/212
s off
f 50/51/213 78/72/214 61/82/215 33/48/216
s 5
f 25/89/90 26/34/89 27/33/98 28/26/97
s 7
f 29/90/106 30/43/105 31/36/217 32/35/113 33/91/112
s off
f 34/38/218 35/37/219 36/52/220
f 37/56/221 38/45/222 39/44/223
s 9
f 40/61/136 41/60/131 42/59/130
f 43/55/123 44/47/122 45/46/138 46/92/137
s 5
f 47/67/147 48/32/92 49/31/91
s off
f 50/51/224 51/50/225 52/70/226
s 12
f 53/93/154 54/27/159 55/76/158 56/78/155
s 14
f 57/80/166 58/79/227 59/84/174 60/42/173 61/94/167
s 15
f 62/86/177 63/85/182 64/66/181 65/65/178
s off
f 66/54/228 67/53/229 68/77/230
f 69/58/231 70/57/232 71/87/233
s 15
f 72/63/179 73/62/187 74/88/180
s 12
f 75/69/188 76/68/157 77/75/156
s off
f 78/72/234 79/71/235 80/83/236
