{
	"asset":{
		"generator":"Khronos glTF Blender I/O v4.1.63",
		"version":"2.0"
	},
	"scene":0,
	"scenes":[
		{
			"name":"Scene",
			"nodes":[
				0
			]
		}
	],
	"nodes":[
		{
			"mesh":0,
			"name":"polySurface14",
			"rotation":[
				0.7071068286895752,
				0,
				0,
				0.7071068286895752
			],
			"scale":[
				0.009999999776482582,
				0.009999999776482582,
				0.009999999776482582
			]
		}
	],
	"materials":[
		{
			"doubleSided":true,
			"name":"aiStandardSurface1.001",
			"pbrMetallicRoughness":{
				"metallicFactor":0,
				"roughnessFactor":0.5527864098548889
			}
		}
	],
	"meshes":[
		{
			"name":"Mesh.003",
			"primitives":[
				{
					"attributes":{
						"POSITION":0,
						"NORMAL":1,
						"TEXCOORD_0":2
					},
					"indices":3,
					"material":0
				}
			]
		}
	],
	"accessors":[
		{
			"bufferView":0,
			"componentType":5126,
			"count":2666,
			"max":[
				3.12552809715271,
				3.1538188457489014,
				3.1687982082366943
			],
			"min":[
				-3.1740875244140625,
				-3.1538188457489014,
				-3.1857800483703613
			],
			"type":"VEC3"
		},
		{
			"bufferView":1,
			"componentType":5126,
			"count":2666,
			"type":"VEC3"
		},
		{
			"bufferView":2,
			"componentType":5126,
			"count":2666,
			"type":"VEC2"
		},
		{
			"bufferView":3,
			"componentType":5123,
			"count":6096,
			"type":"SCALAR"
		}
	],
	"bufferViews":[
		{
			"buffer":0,
			"byteLength":31992,
			"byteOffset":0,
			"target":34962
		},
		{
			"buffer":0,
			"byteLength":31992,
			"byteOffset":31992,
			"target":34962
		},
		{
			"buffer":0,
			"byteLength":21328,
			"byteOffset":63984,
			"target":34962
		},
		{
			"buffer":0,
			"byteLength":12192,
			"byteOffset":85312,
			"target":34963
		}
	],
	"buffers":[
		{
			"byteLength":97504,
			"uri":"ball.bin"
		}
	]
}
