{
	"asset":{
		"generator":"Khronos glTF Blender I/O v4.1.63",
		"version":"2.0"
	},
	"extensionsUsed":[
		"KHR_materials_transmission",
		"KHR_materials_specular",
		"KHR_materials_ior"
	],
	"scene":0,
	"scenes":[
		{
			"name":"Scene",
			"nodes":[
				0
			]
		}
	],
	"nodes":[
		{
			"mesh":0,
			"name":"react l",
			"rotation":[
				0.7071068286895752,
				0,
				0,
				0.7071068286895752
			]
		}
	],
	"materials":[
		{
			"alphaMode":"BLEND",
			"doubleSided":true,
			"extensions":{
				"KHR_materials_transmission":{
					"transmissionFactor":1
				},
				"KHR_materials_specular":{
					"specularFactor":0
				},
				"KHR_materials_ior":{
					"ior":1
				}
			},
			"name":"initialShadingGroup.001",
			"pbrMetallicRoughness":{
				"baseColorFactor":[
					0.5,
					0.5,
					0.5,
					1
				],
				"metallicFactor":0
			}
		}
	],
	"meshes":[
		{
			"name":"react l",
			"primitives":[
				{
					"attributes":{
						"POSITION":0,
						"NORMAL":1,
						"TEXCOORD_0":2
					},
					"indices":3,
					"material":0
				}
			]
		}
	],
	"accessors":[
		{
			"bufferView":0,
			"componentType":5126,
			"count":5368,
			"max":[
				0.6564779877662659,
				0.6564779877662659,
				0.6564779877662659
			],
			"min":[
				-0.6564779877662659,
				-0.6564779877662659,
				-0.6564779877662659
			],
			"type":"VEC3"
		},
		{
			"bufferView":1,
			"componentType":5126,
			"count":5368,
			"type":"VEC3"
		},
		{
			"bufferView":2,
			"componentType":5126,
			"count":5368,
			"type":"VEC2"
		},
		{
			"bufferView":3,
			"componentType":5123,
			"count":30636,
			"type":"SCALAR"
		}
	],
	"bufferViews":[
		{
			"buffer":0,
			"byteLength":64416,
			"byteOffset":0,
			"target":34962
		},
		{
			"buffer":0,
			"byteLength":64416,
			"byteOffset":64416,
			"target":34962
		},
		{
			"buffer":0,
			"byteLength":42944,
			"byteOffset":128832,
			"target":34962
		},
		{
			"buffer":0,
			"byteLength":61272,
			"byteOffset":171776,
			"target":34963
		}
	],
	"buffers":[
		{
			"byteLength":233048,
			"uri":"react.bin"
		}
	]
}
